<svg xmlns="http://www.w3.org/2000/svg" xmlns:xlink="http://www.w3.org/1999/xlink" version="1.1" x="0px" y="0px" viewBox="0 0 100 125" enable-background="new 0 0 100 100" xml:space="preserve"><path d="M83.45,95.436c0.348-1.761,0.536-3.567,0.536-5.42c0-12.729-8.555-26.796-20.635-31.174  c-4.765-2.365-8.011-3.818-8.011-9.175c0-5.25,3.12-6.625,7.731-9.033c12.225-4.309,20.916-18.447,20.916-31.276  c0-1.851-0.191-3.66-0.537-5.418h3.02V0h-8.363H24.951h-8.364v3.94h3.019c-0.346,1.758-0.537,3.567-0.537,5.418  c0,12.817,8.674,26.947,20.883,31.264c4.627,2.402,7.763,3.783,7.763,9.045c0,5.362-3.257,6.822-8.034,9.183  c-0.772,0.281-1.534,0.58-2.276,0.914c-0.077,0.024-0.15,0.055-0.228,0.076v0.031c-10.727,4.904-18.108,18.32-18.108,30.145  c0,1.853,0.19,3.659,0.537,5.42h-3.018v3.938h8.363h53.156h8.365v-3.938H83.45z M77.857,96.136h-0.248  c-0.209,0.205-0.484,0.332-0.789,0.332H26.481c-0.304,0-0.581-0.127-0.789-0.332h-0.495c-0.867-2.459-1.341-5.079-1.341-7.804  c0-13.076,10.795-23.837,24.66-25.213c0.277-1.835,0.469-3.873,0.541-6.167c0-12.18-2.249-16.734-3.914-18.439  C32.94,35.87,23.857,25.828,23.857,13.835c0-2.724,0.474-5.346,1.341-7.805h52.66c0.869,2.46,1.343,5.081,1.343,7.805  c0,11.915-8.964,21.905-21.046,24.628c-0.321,0.327-0.662,0.758-1.01,1.343c-1.322,2.23-2.898,7.022-2.898,17.182  c0.072,2.294,0.266,4.328,0.546,6.162c12.043,1.297,21.716,9.678,23.926,20.48c0.229,0.413,0.366,0.852,0.366,1.325  c0.038,0.671,0.059,1.317,0.068,1.944c0.027,0.475,0.047,0.951,0.047,1.432C79.199,91.057,78.725,93.677,77.857,96.136z"/><path d="M76.824,85.02c-0.002-0.676-2.047-2.729-11.118-4.104c-0.062-0.009-0.121-0.022-0.181-0.042  C63.587,80.71,54.737,79.07,52.48,62.99l0,0c-0.052-0.366-0.098-0.745-0.143-1.125c-0.019-0.158-0.037-0.315-0.054-0.477  c-0.034-0.312-0.064-0.629-0.094-0.951c-0.027-0.31-0.052-0.625-0.075-0.944c-0.016-0.222-0.033-0.441-0.047-0.669  c-0.035-0.586-0.064-1.183-0.084-1.801c0-0.616,0.006-1.214,0.017-1.796c0.004-0.199,0.012-0.387,0.017-0.582  c0.01-0.374,0.019-0.749,0.032-1.108c0.01-0.232,0.022-0.453,0.033-0.68c0.015-0.308,0.028-0.618,0.046-0.915  c0.015-0.238,0.032-0.466,0.049-0.697c0.019-0.268,0.037-0.538,0.059-0.797c0.02-0.24,0.043-0.469,0.064-0.702  c0.022-0.235,0.044-0.474,0.069-0.701c0.024-0.235,0.053-0.461,0.08-0.689c0.025-0.209,0.051-0.42,0.077-0.623  c0.031-0.233,0.064-0.458,0.099-0.683c0.026-0.18,0.053-0.362,0.081-0.537c0.037-0.231,0.077-0.454,0.116-0.675  c0.028-0.156,0.056-0.312,0.085-0.463c0.043-0.226,0.088-0.445,0.134-0.661c0.028-0.131,0.056-0.263,0.084-0.391  c0.051-0.224,0.103-0.442,0.155-0.655c0.026-0.106,0.053-0.211,0.079-0.315c0.058-0.222,0.116-0.439,0.177-0.649  c0.023-0.083,0.047-0.164,0.071-0.245c0.065-0.221,0.132-0.436,0.2-0.644c0.02-0.059,0.039-0.118,0.06-0.176  c0.074-0.22,0.149-0.434,0.227-0.639c0.014-0.036,0.027-0.071,0.04-0.107c0.085-0.221,0.17-0.434,0.257-0.638  c0.006-0.013,0.011-0.026,0.017-0.039c0.191-0.445,0.389-0.853,0.59-1.223h-0.001c1.794-3.303,3.908-3.759,4.894-3.766  c3.006-0.854,4.377-2.143,4.377-2.991c0-1.583-4.914-3.88-12.617-3.88c-7.7,0-12.614,2.297-12.614,3.88  c0,0.847,1.404,2.142,4.485,2.993c1.032,0.041,3.074,0.584,4.81,3.806c0.095,0.176,0.189,0.361,0.282,0.554  c0.011,0.022,0.021,0.044,0.032,0.066c0.087,0.182,0.172,0.371,0.257,0.568c0.016,0.038,0.032,0.076,0.048,0.115  c0.079,0.187,0.156,0.38,0.232,0.58c0.021,0.057,0.042,0.114,0.063,0.172c0.07,0.19,0.14,0.386,0.208,0.588  c0.026,0.077,0.051,0.155,0.076,0.233c0.063,0.193,0.125,0.391,0.185,0.596c0.028,0.096,0.056,0.196,0.083,0.295  c0.056,0.198,0.111,0.398,0.165,0.606c0.03,0.117,0.059,0.24,0.088,0.361c0.049,0.201,0.098,0.404,0.145,0.615  c0.031,0.138,0.06,0.283,0.089,0.425c0.043,0.207,0.086,0.414,0.127,0.629c0.03,0.162,0.059,0.33,0.088,0.497  c0.037,0.209,0.075,0.418,0.109,0.636c0.03,0.186,0.057,0.379,0.085,0.571c0.031,0.214,0.063,0.425,0.093,0.646  c0.027,0.208,0.052,0.427,0.078,0.642c0.025,0.22,0.053,0.436,0.077,0.663c0.024,0.231,0.046,0.474,0.068,0.713  c0.021,0.226,0.043,0.446,0.062,0.679c0.021,0.255,0.038,0.522,0.057,0.786c0.017,0.232,0.034,0.459,0.049,0.698  c0.017,0.286,0.029,0.586,0.043,0.882c0.012,0.231,0.024,0.456,0.033,0.693c0.014,0.35,0.022,0.716,0.031,1.078  c0.005,0.199,0.013,0.39,0.017,0.593c0.011,0.556,0.016,1.127,0.016,1.714c0,0.02,0.001,0.037,0.001,0.057  c-0.02,0.618-0.049,1.216-0.084,1.803c-0.014,0.234-0.032,0.461-0.049,0.689c-0.022,0.317-0.047,0.631-0.074,0.938  c-0.028,0.317-0.059,0.63-0.092,0.938c-0.019,0.177-0.039,0.351-0.06,0.523c-0.044,0.371-0.088,0.74-0.139,1.097  c-2.261,16.116-11.127,17.739-13.051,17.9c-0.055,0.018-0.112,0.031-0.171,0.04c-9.074,1.378-11.116,3.433-11.116,4.041  c-0.272,4.778,0.22,7.608,0.776,9.251h48.785C76.602,92.566,77.093,89.743,76.824,85.02z"/><text x="0" y="115" fill="#000000" font-size="5px" font-weight="bold" font-family="'Helvetica Neue', Helvetica, Arial-Unicode, Arial, Sans-serif">Created by Sma-rtez</text><text x="0" y="120" fill="#000000" font-size="5px" font-weight="bold" font-family="'Helvetica Neue', Helvetica, Arial-Unicode, Arial, Sans-serif">from the Noun Project</text></svg>