<svg id="Layer_1" data-name="Layer 1" xmlns="http://www.w3.org/2000/svg" viewBox="0 0 512 512"><defs><style>.cls-1{fill:#141f38;}</style></defs><title>hour-glass-outline</title><path class="cls-1" d="M296.66,255l2.25-1,.66-.31,2.49-1.19.19-.09L305,251l.44-.23,2.46-1.27.46-.24q2.89-1.52,5.82-3.19l.36-.21q1.44-.82,2.88-1.68l0,0q3.07-1.82,6.16-3.81l.18-.12c36-23.27,72.94-63.88,72.94-132.68V76.16A32,32,0,0,0,422.4,44.8V32a32,32,0,0,0-32-32H121.6a32,32,0,0,0-32,32V44.8a32,32,0,0,0,25.6,31.36v31.36c0,68.8,36.91,109.41,72.93,132.68l.2.13q3.08,2,6.14,3.8l.06,0q1.44.85,2.86,1.67l.37.21q2.93,1.67,5.81,3.19l.47.25,2.45,1.27.45.23,2.8,1.39.2.1,2.48,1.19.67.31,2.24,1,.41.19,1.82.81c-41.7,18.35-102.37,60.26-102.37,148.48v31.36A32,32,0,0,0,89.6,467.2V480a32,32,0,0,0,32,32H390.4a32,32,0,0,0,32-32V467.2a32,32,0,0,0-25.6-31.36V404.48c0-88.22-60.68-130.13-102.37-148.48l1.83-.81Zm34.79-52.94q-1.77,1.65-3.57,3.22l-.11.1a171.88,171.88,0,0,1-39,25.06l-.43.2q-1.55.73-3.05,1.41l-1.34.59-2.12.93c-1.16.5-2.32,1-3.45,1.44-4.78,1.94-9.18,3.5-13,4.74s-7,2.14-9.4,2.77A186.37,186.37,0,0,1,233.6,235l0,0c-1.11-.45-2.25-.92-3.39-1.41l-2.18-1L226.7,232q-1.53-.69-3.11-1.43l-.37-.17a171.86,171.86,0,0,1-39-25.08l0,0q-1.84-1.59-3.64-3.28l-.77-.73c-1-.91-1.92-1.83-2.87-2.78-.47-.47-.93-1-1.4-1.45-.73-.76-1.46-1.51-2.18-2.29q-1.5-1.63-3-3.32l-.22-.26c23.88-7.68,54.12-12,85.85-12s62,4.34,85.85,12l-.21.25q-1.46,1.7-3,3.33c-.71.77-1.43,1.51-2.15,2.26-.48.5-1,1-1.44,1.48-.93.93-1.87,1.84-2.82,2.74ZM140.8,107.52V76.8H371.2v30.72c0,23-4.85,43.63-14.44,61.79-27-9.78-62.19-15.71-100.76-15.71s-73.79,5.93-100.76,15.71C145.65,151.15,140.8,130.47,140.8,107.52ZM115.2,32a6.41,6.41,0,0,1,6.4-6.4H390.4a6.41,6.41,0,0,1,6.4,6.4V44.8a6.41,6.41,0,0,1-6.4,6.4H121.6a6.41,6.41,0,0,1-6.4-6.4ZM396.8,480a6.41,6.41,0,0,1-6.4,6.4H121.6a6.41,6.41,0,0,1-6.4-6.4V467.2a6.41,6.41,0,0,1,6.4-6.4H390.4a6.41,6.41,0,0,1,6.4,6.4ZM203.11,435.2l29.61-18.84a43.36,43.36,0,0,1,46.55,0l29.61,18.84ZM339.36,317.92c21.13,23.28,31.84,52.4,31.84,86.56V435.2H356.57L293,394.76a69,69,0,0,0-74,0L155.43,435.2H140.8V404.48c0-34.16,10.71-63.28,31.84-86.56,18.86-20.78,42.7-33.38,59.64-40.36q1.15-.41,2.24-.92A185.52,185.52,0,0,1,256,269.5a185.52,185.52,0,0,1,21.47,7.14q1.1.51,2.24.92C296.66,284.54,320.51,297.14,339.36,317.92Z"/><circle class="cls-1" cx="256" cy="307.2" r="12.8"/><circle class="cls-1" cx="256" cy="345.6" r="12.8"/></svg>